<svg width="1200" height="418" viewBox="0 0 1200 418" fill="none" xmlns="http://www.w3.org/2000/svg">
<g clip-path="url(#clip0_205_303)">
<path d="M1200 0H0V418H1200V0Z" fill="url(#paint0_linear_205_303)"/>
<path d="M1124.3 331.6H708.31C707.592 331.6 707.01 332.182 707.01 332.9V333.24C707.01 333.958 707.592 334.54 708.31 334.54H1124.3C1125.02 334.54 1125.6 333.958 1125.6 333.24V332.9C1125.6 332.182 1125.02 331.6 1124.3 331.6Z" fill="#1B3242"/>
<path d="M887.42 330.22C887.42 330.22 877.53 273.16 873.53 267.27C868.01 259.12 861.14 284.11 860.8 281.92C857.64 261.17 858.3 235.01 843.5 231.04C835.08 228.79 844.05 250.58 843.01 256.2C841.97 261.82 827.96 241.77 819.34 231.2C810.72 220.63 805.44 226.45 810.44 239.31C815.27 251.76 832.78 266.31 828.86 267.58C824.94 268.85 802.97 251.5 799.65 257.89C795.59 265.72 829.44 279.54 826.05 281.1C822.66 282.66 806.53 275.33 806.53 281.57C806.53 287.81 828.81 289.37 828.23 292.06C827.29 296.43 813.29 285.25 812.23 291.31C811.17 297.37 831.23 297.98 830.53 302.83C830.13 305.61 825.06 302.7 824.14 306.53C822.05 315.26 853.76 327.53 853.76 327.53L887.42 330.22Z" fill="#64C3CF"/>
<path d="M903.2 331.72C899.2 326.49 875.41 297.21 861.02 292.53C845.14 287.38 860.11 307.86 860.11 307.86C860.11 307.86 831.94 276.96 821.6 279.74C812.13 282.3 821.6 301.45 821.6 301.45C821.6 301.45 810.93 290.85 797.99 290.85C785.39 290.85 802.06 323.6 811.99 331.72H903.2Z" fill="#4EBCBF"/>
<path d="M804.73 310.93C804.406 311.988 804.314 313.103 804.46 314.2C804.628 315.169 805.037 316.081 805.65 316.85C804.36 316.37 803.256 315.494 802.494 314.348C801.733 313.202 801.353 311.845 801.41 310.47C801.69 308.42 803.41 307.42 804.1 308.02C804.79 308.62 804.84 309.86 804.73 310.93Z" fill="#1E3B4C"/>
<path d="M815.09 314.64C814.761 315.7 814.669 316.82 814.82 317.92C814.987 318.888 815.392 319.799 816 320.57C814.966 320.197 814.049 319.559 813.34 318.72C812.791 318.107 812.369 317.391 812.099 316.613C811.83 315.835 811.718 315.011 811.77 314.19C812.05 312.14 813.77 311.14 814.45 311.74C815.13 312.34 815.19 313.58 815.09 314.64Z" fill="#1E3B4C"/>
<path d="M825.61 319.35C825.281 320.41 825.189 321.53 825.34 322.63C825.511 323.597 825.916 324.507 826.52 325.28C825.491 324.898 824.576 324.262 823.86 323.43C822.68 322.13 822.02 319.87 822.29 318.9C822.57 316.84 824.29 315.84 824.97 316.44C825.65 317.04 825.72 318.28 825.61 319.35Z" fill="#1E3B4C"/>
<path d="M801.61 320.63C801.96 319.668 802.516 318.794 803.24 318.07C803.898 317.443 804.708 316.999 805.59 316.78C804.618 316.479 803.584 316.434 802.59 316.65C801.844 316.795 801.134 317.087 800.502 317.51C799.87 317.932 799.329 318.476 798.91 319.11C797.98 320.78 798.68 322.47 799.53 322.42C800.38 322.37 801.13 321.48 801.61 320.63Z" fill="#1E3B4C"/>
<path d="M812.41 324.46C812.758 323.494 813.315 322.617 814.04 321.89C814.704 321.272 815.512 320.828 816.39 320.6C815.418 320.299 814.383 320.258 813.39 320.48C812.644 320.623 811.935 320.914 811.303 321.334C810.671 321.755 810.13 322.297 809.71 322.93C808.78 324.6 809.47 326.29 810.33 326.24C811.19 326.19 811.9 325.31 812.41 324.46Z" fill="#1E3B4C"/>
<path d="M794.68 311.61C794.688 312.27 794.834 312.921 795.11 313.52C795.377 314.035 795.769 314.475 796.25 314.8C795.6 314.778 794.968 314.581 794.42 314.23C794.001 313.98 793.635 313.651 793.343 313.259C793.051 312.868 792.84 312.423 792.72 311.95C792.52 310.74 793.3 309.87 793.81 310.08C794.32 310.29 794.55 310.99 794.68 311.61Z" fill="#1E3B4C"/>
<path d="M793 316.47C793.341 315.912 793.802 315.437 794.35 315.08C794.85 314.778 795.417 314.606 796 314.58C795.286 314.185 794.464 314.028 793.655 314.132C792.845 314.236 792.09 314.596 791.5 315.16C790.69 316.08 790.91 317.23 791.45 317.32C791.99 317.41 792.61 316.94 793 316.47Z" fill="#1E3B4C"/>
<path d="M816.92 270.75C828.43 288.75 836.92 310.43 841.76 331.75H843C838.021 310.27 829.504 289.767 817.8 271.08C815.13 266.89 812.25 261.92 807.25 260.29C807.238 260.286 807.225 260.284 807.212 260.286C807.199 260.287 807.187 260.292 807.177 260.299C807.166 260.307 807.157 260.317 807.151 260.328C807.145 260.339 807.142 260.352 807.142 260.365C807.142 260.378 807.145 260.391 807.151 260.402C807.157 260.414 807.166 260.423 807.177 260.431C807.187 260.438 807.199 260.443 807.212 260.444C807.225 260.446 807.238 260.445 807.25 260.44C811.77 262.13 814.42 266.83 816.92 270.75Z" fill="#1E3B4C"/>
<path d="M839.42 331.71C825.945 313.272 809.895 296.861 791.76 282.98C791.58 282.84 791.33 283.16 791.51 283.31C809.295 297.135 825.011 313.434 838.18 331.71H839.42Z" fill="#1E3B4C"/>
<path d="M815.86 259.56C815.058 260.448 814.458 261.498 814.1 262.64C813.834 263.67 813.834 264.75 814.1 265.78C813.265 264.95 812.662 263.916 812.35 262.78C811.78 260.97 812.18 258.46 812.88 257.63C814.09 255.75 816.22 255.56 816.63 256.47C817.04 257.38 816.46 258.57 815.86 259.56Z" fill="#1E3B4C"/>
<path d="M813.11 275.66C813.97 274.845 814.992 274.222 816.11 273.83C817.128 273.537 818.202 273.496 819.24 273.71C818.379 272.897 817.327 272.315 816.18 272.02C814.36 271.49 811.87 271.93 811.06 272.66C809.21 273.91 809.06 276.04 809.98 276.44C810.9 276.84 812.13 276.28 813.11 275.66Z" fill="#1E3B4C"/>
<path d="M817.27 282.72C818.122 281.895 819.147 281.27 820.27 280.89C821.283 280.586 822.357 280.545 823.39 280.77C822.534 279.951 821.479 279.368 820.33 279.08C818.52 278.54 816.03 278.99 815.21 279.71C813.36 280.97 813.21 283.1 814.13 283.5C815.05 283.9 816.29 283.34 817.27 282.72Z" fill="#1E3B4C"/>
<path d="M802.44 299.09C803.295 298.269 804.319 297.644 805.44 297.26C806.456 296.956 807.533 296.915 808.57 297.14C807.719 296.312 806.663 295.725 805.51 295.44C803.7 294.91 801.2 295.36 800.39 296.08C798.54 297.34 798.39 299.47 799.31 299.86C800.23 300.25 801.47 299.7 802.44 299.09Z" fill="#1E3B4C"/>
<path d="M794.87 292.39C795.73 291.576 796.752 290.952 797.87 290.56C798.887 290.262 799.963 290.221 801 290.44C800.142 289.624 799.088 289.042 797.94 288.75C796.12 288.22 793.63 288.66 792.82 289.39C790.97 290.64 790.82 292.77 791.74 293.17C792.66 293.57 793.89 293.01 794.87 292.39Z" fill="#1E3B4C"/>
<path d="M821.68 267.55C820.744 268.296 819.983 269.238 819.45 270.31C819.013 271.278 818.828 272.341 818.91 273.4C818.213 272.435 817.782 271.304 817.66 270.12C817.38 268.24 818.17 265.83 818.99 265.12C820.49 263.45 822.61 263.6 822.88 264.57C823.15 265.54 822.42 266.66 821.68 267.55Z" fill="#1E3B4C"/>
<path d="M827.79 275.55C827.28 275.82 825.48 276.32 824.58 277.67C823.884 278.596 823.502 279.721 823.49 280.88C822.75 279.603 822.332 278.165 822.27 276.69C822.14 274.47 823.45 272.12 824.61 271.69C826.74 270.48 829.47 271.56 829.7 272.75C829.93 273.94 828.86 274.88 827.79 275.55Z" fill="#1E3B4C"/>
<path d="M834.22 287.67C833.67 287.85 831.81 288.04 830.7 289.22C829.86 290.025 829.296 291.075 829.09 292.22C828.574 290.835 828.402 289.346 828.59 287.88C828.83 285.68 830.52 283.57 831.73 283.34C834.04 282.5 836.55 284.03 836.57 285.24C836.59 286.45 835.39 287.22 834.22 287.67Z" fill="#1E3B4C"/>
<path d="M815.19 296.11C814.199 296.504 813.338 297.165 812.7 298.02C812.184 298.811 811.938 299.748 812 300.69C811.317 299.696 810.891 298.549 810.76 297.35C810.54 295.56 811.47 293.57 812.38 293.15C814.05 292.04 816.38 292.76 816.58 293.72C816.78 294.68 816.02 295.51 815.19 296.11Z" fill="#1E3B4C"/>
<path d="M805.28 262.4C805.76 261.876 806.346 261.46 807 261.18C807.586 260.957 808.22 260.888 808.84 260.98C808.298 260.528 807.646 260.228 806.95 260.11C806.435 260.005 805.905 260.004 805.389 260.107C804.874 260.21 804.385 260.415 803.95 260.71C802.95 261.53 802.95 262.8 803.48 263C804.01 263.2 804.73 262.81 805.28 262.4Z" fill="#1E3B4C"/>
<path d="M807.61 257.22C807.485 257.918 807.516 258.635 807.7 259.32C807.888 259.929 808.233 260.477 808.7 260.91C808.009 260.746 807.374 260.401 806.86 259.91C806.462 259.563 806.137 259.14 805.904 258.666C805.671 258.192 805.533 257.677 805.5 257.15C805.5 255.83 806.5 255.06 807.02 255.38C807.254 255.62 807.429 255.911 807.531 256.231C807.633 256.55 807.66 256.889 807.61 257.22Z" fill="#1E3B4C"/>
<path d="M789.42 285.57C789.895 285.047 790.479 284.634 791.13 284.36C791.718 284.131 792.356 284.058 792.98 284.15C792.434 283.704 791.784 283.405 791.09 283.28C790.05 283.075 788.971 283.29 788.09 283.88C787.09 284.71 787.09 285.98 787.62 286.17C788.15 286.36 788.87 285.98 789.42 285.57Z" fill="#1E3B4C"/>
<path d="M792.2 280.38C792.022 281.066 791.995 281.782 792.12 282.48C792.25 283.098 792.535 283.673 792.95 284.15C792.28 283.933 791.677 283.547 791.2 283.03C790.829 282.656 790.537 282.211 790.343 281.721C790.149 281.231 790.056 280.707 790.07 280.18C790.19 278.85 791.25 278.18 791.72 278.54C792.19 278.9 792.24 279.69 792.2 280.38Z" fill="#1E3B4C"/>
<path d="M794.15 314.49C797.463 314.802 800.744 315.387 803.96 316.24C809.807 317.885 815.521 319.974 821.05 322.49C823.79 323.68 826.54 324.86 829.22 326.17C830.49 326.747 831.716 327.416 832.89 328.17C834.397 329.242 835.831 330.415 837.18 331.68H835.9C833.292 329.496 830.432 327.633 827.38 326.13C816.84 321.05 805.89 315.84 794.14 314.55C794.08 314.57 794.09 314.48 794.15 314.49Z" fill="#1E3B4C"/>
<path d="M1003.98 331.72C1007.1 329.05 1008.98 326.21 1008.51 323.39C1007.65 318.39 1000.51 321.59 1000.23 317.96C999.76 311.64 1026.03 313.2 1025.13 305.09C1024.25 297.17 1005.2 310.09 1004.36 304.33C1003.85 300.79 1036.91 296.22 1034.65 288.48C1032.05 279.61 1012.84 292.79 1008.4 290.43C1003.96 288.07 1040.86 272.62 1036.14 262.11C1032.29 253.53 1011.14 274.73 1005.93 272.72C1000.72 270.71 1026.93 256.6 1033.63 238.2C1039.76 221.33 1033.24 209.58 1021.13 226.2C1010.52 240.76 988.77 263.97 987.91 256.63C987.05 249.29 1011.66 225.63 995.8 225.63C975.07 225.63 967.63 261.48 961.3 287.88C960.63 290.67 953.8 257.76 945.53 267.68C941.27 272.79 949.17 310.37 954.09 331.68L1003.98 331.72Z" fill="#64C3CF"/>
<path d="M975.15 89.8C974.87 89.7 974.58 89.61 974.29 89.53L973.99 89.44L973.67 89.36L973.35 89.29L973.04 89.23L972.69 89.16H972.39H972.01H971.73C971.583 89.1498 971.436 89.1498 971.29 89.16H971.06H970.38H865.77H865.05C864.574 89.1842 864.1 89.2343 863.63 89.31C863.39 89.31 863.16 89.38 862.93 89.43C859.987 90.0434 857.317 91.5778 855.305 93.8109C853.293 96.044 852.044 98.8597 851.74 101.85C851.74 102.32 851.67 102.85 851.67 103.29V317.57C851.668 320.475 852.559 323.31 854.223 325.69C855.886 328.071 858.242 329.883 860.97 330.88H861.05C861.32 330.98 861.59 331.06 861.87 331.14L862.16 331.23L862.48 331.31L862.81 331.38L863.12 331.45L863.47 331.51H863.76H864.15H864.42H864.86H865.09H865.77H970.35C970.84 331.51 971.35 331.51 971.79 331.44C975.02 331.103 978.036 329.662 980.329 327.362C982.622 325.062 984.053 322.042 984.38 318.81C984.428 318.328 984.452 317.844 984.45 317.36V103.11C984.453 100.205 983.563 97.3696 981.899 94.9883C980.235 92.6071 977.879 90.7957 975.15 89.8Z" fill="#1E3B4C"/>
<path d="M978.03 108.25H858.51V312.44H978.03V108.25Z" fill="#F8F7F7"/>
<path d="M943.1 99.28H893.21C892.912 99.28 892.67 99.5218 892.67 99.82V101.3C892.67 101.598 892.912 101.84 893.21 101.84H943.1C943.398 101.84 943.64 101.598 943.64 101.3V99.82C943.64 99.5218 943.398 99.28 943.1 99.28Z" fill="white"/>
<path opacity="0.2" d="M977.62 303.87H858.51V312.44H977.62V303.87Z" fill="#EF7A4E"/>
<path opacity="0.2" d="M978.03 108.25H858.51V119.09H978.03V108.25Z" fill="#3DB4C5"/>
<path d="M955.595 212.228C964.133 191.614 954.344 167.981 933.73 159.442C913.117 150.904 889.484 160.693 880.945 181.307C872.407 201.921 882.196 225.553 902.81 234.092C923.423 242.631 947.056 232.842 955.595 212.228Z" fill="#E4E5E4"/>
<path d="M899.5 266.38V252.38H905.67C912.38 252.38 912.38 262.82 905.67 262.82H903.08V266.41L899.5 266.38ZM905.65 255.56C904.8 255.56 903.9 255.56 903.08 255.56V259.56H905.61C907.61 259.57 907.73 255.58 905.61 255.56H905.65Z" fill="#1E3B4C"/>
<path d="M920.88 264.61H915.35L914.53 266.38H911.02V265.86L917.33 252.17H918.88L925.21 265.86V266.38H921.7L920.88 264.61ZM918.09 257.84L916.53 261.53H919.7L918.09 257.84Z" fill="#1E3B4C"/>
<path d="M932.31 266.38H928.76V260.49L924.05 252.89V252.35H927.92L930.46 257.02H930.6L933.15 252.35H937.04V252.89L932.31 260.49V266.38Z" fill="#1E3B4C"/>
<path d="M927.81 128.82H946.86V134.54C946.86 135.647 946.642 136.743 946.218 137.766C945.795 138.789 945.174 139.718 944.391 140.501C943.608 141.284 942.679 141.905 941.656 142.328C940.633 142.752 939.537 142.97 938.43 142.97H936.24C935.133 142.97 934.037 142.752 933.014 142.328C931.991 141.905 931.062 141.284 930.279 140.501C929.496 139.718 928.875 138.789 928.452 137.766C928.028 136.743 927.81 135.647 927.81 134.54V128.82Z" fill="#4EBCBF"/>
<path d="M908.76 128.82H927.81V134.54C927.81 135.647 927.592 136.743 927.168 137.766C926.745 138.789 926.124 139.718 925.341 140.501C924.558 141.284 923.629 141.905 922.606 142.328C921.583 142.752 920.487 142.97 919.38 142.97H917.19C916.083 142.97 914.987 142.752 913.964 142.328C912.941 141.905 912.012 141.284 911.229 140.501C910.446 139.718 909.825 138.789 909.402 137.766C908.978 136.743 908.76 135.647 908.76 134.54V128.82Z" fill="#3E304A"/>
<path d="M889.71 128.82H908.76V134.54C908.76 136.776 907.872 138.92 906.291 140.501C904.71 142.082 902.566 142.97 900.33 142.97H898.14C897.033 142.97 895.937 142.752 894.914 142.328C893.891 141.905 892.962 141.284 892.179 140.501C891.396 139.718 890.775 138.789 890.352 137.766C889.928 136.743 889.71 135.647 889.71 134.54V128.82Z" fill="#4EBCBF"/>
<path d="M870.65 128.82H889.7V134.54C889.7 136.776 888.812 138.92 887.231 140.501C885.65 142.082 883.506 142.97 881.27 142.97H879.08C877.973 142.97 876.877 142.752 875.854 142.328C874.831 141.905 873.902 141.284 873.119 140.501C872.336 139.718 871.715 138.789 871.292 137.766C870.868 136.743 870.65 135.647 870.65 134.54V128.82Z" fill="#372C42"/>
<path d="M851.6 128.82H870.65V134.54C870.65 135.647 870.432 136.743 870.008 137.766C869.585 138.789 868.964 139.718 868.181 140.501C867.398 141.284 866.469 141.905 865.446 142.328C864.423 142.752 863.327 142.97 862.22 142.97H860C858.893 142.97 857.797 142.752 856.774 142.328C855.751 141.905 854.822 141.284 854.039 140.501C853.256 139.718 852.635 138.789 852.212 137.766C851.788 136.743 851.57 135.647 851.57 134.54V128.82H851.6Z" fill="#4EBCBF"/>
<path d="M984.93 128.82H1004V134.54C1004 135.647 1003.78 136.743 1003.36 137.766C1002.93 138.789 1002.31 139.718 1001.53 140.501C1000.75 141.284 999.819 141.905 998.796 142.328C997.773 142.752 996.677 142.97 995.57 142.97H993.38C992.273 142.97 991.177 142.752 990.154 142.328C989.131 141.905 988.202 141.284 987.419 140.501C986.636 139.718 986.015 138.789 985.592 137.766C985.168 136.743 984.95 135.647 984.95 134.54V128.82H984.93Z" fill="#3E304A"/>
<path d="M965.88 128.82H984.93V134.54C984.934 135.65 984.719 136.749 984.297 137.775C983.875 138.802 983.255 139.734 982.471 140.52C981.688 141.306 980.758 141.93 979.733 142.356C978.708 142.781 977.609 143 976.5 143H974.31C972.074 143 969.93 142.112 968.349 140.531C966.768 138.95 965.88 136.806 965.88 134.57V128.85V128.82Z" fill="#4EBCBF"/>
<path d="M946.87 128.82H965.92V134.54C965.92 135.647 965.702 136.743 965.278 137.766C964.855 138.789 964.234 139.718 963.451 140.501C962.668 141.284 961.739 141.905 960.716 142.328C959.693 142.752 958.597 142.97 957.49 142.97H955.3C954.193 142.97 953.097 142.752 952.074 142.328C951.051 141.905 950.122 141.284 949.339 140.501C948.556 139.718 947.935 138.789 947.512 137.766C947.088 136.743 946.87 135.647 946.87 134.54V128.82Z" fill="#3E304A"/>
<path d="M832.54 128.82H851.6V134.54C851.6 135.647 851.382 136.743 850.958 137.766C850.535 138.789 849.914 139.718 849.131 140.501C848.348 141.284 847.419 141.905 846.396 142.328C845.373 142.752 844.277 142.97 843.17 142.97H841C839.893 142.97 838.797 142.752 837.774 142.328C836.751 141.905 835.822 141.284 835.039 140.501C834.256 139.718 833.635 138.789 833.212 137.766C832.788 136.743 832.57 135.647 832.57 134.54V128.82H832.54Z" fill="#3E304A"/>
<path d="M925.06 108.25H911.51L908.76 128.82H927.81L925.06 108.25Z" fill="#3E304A"/>
<path d="M911.51 108.25H897.97L889.71 128.82H908.76L911.51 108.25Z" fill="#64C3CF"/>
<path d="M897.97 108.25H884.42L870.65 128.82H889.71L897.97 108.25Z" fill="#3E304A"/>
<path d="M884.42 108.25H870.87L851.6 128.82H870.65L884.42 108.25Z" fill="#64C3CF"/>
<path d="M870.87 108.25H857.33L832.54 128.82H851.6L870.87 108.25Z" fill="#3E304A"/>
<path d="M979.16 108.25H965.61L984.93 128.82H1003.98L979.16 108.25Z" fill="#3E304A"/>
<path d="M965.68 108.25H952.13L965.88 128.82H984.93L965.68 108.25Z" fill="#64C3CF"/>
<path d="M952.13 108.25H938.58L946.87 128.82H965.92L952.13 108.25Z" fill="#3E304A"/>
<path d="M938.58 108.25H925.04L927.81 128.82H946.87L938.58 108.25Z" fill="#64C3CF"/>
<path d="M742.61 312.44C742.61 312.44 741.67 318.96 740.07 321.06C739.242 321.935 738.511 322.897 737.89 323.93C736.89 325.93 737.44 328.93 738.19 330.51C738.57 331.34 738.19 331.34 739.03 331.61C740.279 331.978 741.62 331.876 742.799 331.323C743.978 330.771 744.914 329.805 745.43 328.61C746.189 326.85 746.616 324.965 746.69 323.05C746.96 317.13 748.79 314.12 748.79 314.12L742.61 312.44Z" fill="#F4A492"/>
<path d="M770.75 315.42C770.75 315.42 771.33 322.77 770.86 325.16C770.61 326.44 769.21 329.07 769.86 330.27C770.142 330.911 770.627 331.441 771.24 331.78L787.84 332.05C788.74 332.05 788.14 331.48 787.42 330.94C785.541 329.628 783.53 328.515 781.42 327.62C781.17 327.5 780.26 326.92 779.94 326.72C779.054 326.129 778.253 325.419 777.56 324.61C776.37 323.27 776.27 316.8 776.27 316.8L770.75 315.42Z" fill="#F4A492"/>
<path d="M783.73 217.72C783.73 217.72 785.82 229.65 784.45 237.48C783.08 245.31 776.45 317.82 776.45 317.82L769.13 318.23C769.13 318.23 767.6 287.94 767.87 283.73C768.14 279.52 770.32 272.47 770.32 272.47L769.59 248.01L778.83 215.88L783.73 217.72Z" fill="#372C42"/>
<path d="M762.21 215.22C762.21 215.22 756.44 223.95 755.07 231.17C753.7 238.39 756.07 260.58 753.44 270.05C752.01 275.17 746.59 283.05 745.77 289.7C744.95 296.35 741.71 313.7 741.71 313.7L749.03 315.16L766.03 271.85L779.37 232.71L782.79 212.55L762.21 215.22Z" fill="#3E304A"/>
<path d="M745.95 327.28C744.434 327.529 742.879 327.345 741.464 326.749C740.049 326.153 738.83 325.168 737.95 323.91C736.95 325.91 736.44 328.91 737.18 330.51C737.84 331.95 739.76 331.9 741.27 331.96C742.024 331.968 742.764 331.763 743.407 331.368C744.049 330.974 744.567 330.406 744.9 329.73C745.329 328.95 745.681 328.129 745.95 327.28Z" fill="#64C3CF"/>
<path d="M779.95 326.71C776.843 327.618 773.526 327.488 770.5 326.34C770.03 327.68 769.41 329.34 769.74 330.34C770.15 331.52 770.74 331.78 771.23 331.8C775.23 331.9 785.92 332.05 788.97 332.09C789.067 332.093 789.163 332.067 789.246 332.016C789.329 331.965 789.395 331.891 789.437 331.803C789.478 331.715 789.493 331.616 789.479 331.52C789.466 331.423 789.424 331.333 789.36 331.26C788.61 330.33 780.28 326.92 779.95 326.71Z" fill="#64C3CF"/>
<path d="M810 197.11C810.31 196.45 807.08 195.57 807 194.87C806.92 194.17 811.22 194.56 811.44 193.98C811.84 192.9 806.73 193.26 806.88 192.75C807.03 192.24 812.28 191.62 811.82 190.68C811.36 189.74 806.44 191.89 806.37 191.27C806.3 190.65 811.12 189.68 811.17 188.35C811.17 187.64 803.17 191.07 802.29 190.6C801.41 190.13 803.62 187 802.97 186.43C802.32 185.86 799.48 192.43 798.97 192.59C798.46 192.75 787.39 196.13 783.63 196.68C783.31 195.41 780.48 188.39 780.21 187.19C778 188.44 775.21 186.94 772.92 188.05C774.06 192.05 776.61 205.29 777.63 205.89C780.75 207.7 797.11 199.06 799.82 197.53C802.53 196 803.91 196.72 805.67 196.33C807.43 195.94 809.7 197.76 810 197.11Z" fill="#F4A492"/>
<path d="M780.88 158.14C781.7 154.4 782.51 150.63 780.34 146.52C779.535 144.96 778.353 143.626 776.902 142.638C775.451 141.649 773.777 141.038 772.03 140.86C762.03 139.68 764.2 148.98 750.28 150.99C745.96 151.62 741.94 152.22 738.28 154.37C731.76 158.25 729.28 164.48 733.62 174.63C744.21 199.48 769.55 177.89 773.41 173.49C777.27 169.09 780.35 160.55 780.88 158.14Z" fill="#1E3B4C"/>
<path d="M765.21 169.96C765.21 169.96 760.21 170.53 757.21 173.8C754.21 177.07 762.07 203.37 762.62 207.53C763.17 211.69 757.39 223.22 757.39 223.22C757.39 223.22 777.02 227.12 782.13 223.75C782.13 223.75 782.58 191.57 782.03 188.59C781.48 185.61 776.93 173.52 775.83 172.34C774.73 171.16 765.21 169.96 765.21 169.96Z" fill="#64C3CF"/>
<path d="M767.74 159.82L767.63 160.42C767.29 162.25 765.98 168.3 765.1 169.96C764.04 171.96 768.75 178.38 773.29 177.6C774.64 177.37 772.14 171.71 772.29 171.11L773.15 166.79C773.33 165.89 773.51 164.97 773.68 164.11L774.57 159.65L767.74 159.82Z" fill="#F4A492"/>
<path opacity="0.5" d="M767.61 160.42L767.72 159.82L774.52 159.65L773.63 164.11C773.46 164.96 773.28 165.88 773.11 166.78C771.893 166.56 770.764 165.994 769.86 165.15C768.734 164.17 767.886 162.911 767.4 161.5C767.51 161.07 767.61 160.71 767.61 160.42Z" fill="#EE755A"/>
<path d="M771.83 143.66C769.925 144.046 768.226 145.113 767.05 146.66C765.05 149.25 762.87 157.27 767.86 161.66C772.85 166.05 777.78 161.08 778.51 155.85C779.24 150.62 779.1 143.47 771.83 143.66Z" fill="#F4A492"/>
<path d="M779.97 154.51C779.65 155.77 778.83 156.62 778.12 156.41C777.41 156.2 777.12 155.01 777.42 153.75C777.72 152.49 778.56 151.63 779.26 151.84C779.96 152.05 780.28 153.22 779.97 154.51Z" fill="#F4A492"/>
<path d="M774.91 143.68C774.91 143.68 768.39 151.16 765.33 151.52C762.27 151.88 761.86 155.92 761.86 155.92C761.86 155.92 762.96 146.59 765.99 144.78C769.02 142.97 774.91 143.68 774.91 143.68Z" fill="#1E3B4C"/>
<path d="M766.33 153.33C766.58 154.69 766.08 155.93 765.21 156.11C764.34 156.29 763.44 155.33 763.21 153.98C762.98 152.63 763.46 151.38 764.33 151.2C765.2 151.02 766.08 151.98 766.33 153.33Z" fill="#F4A492"/>
<path d="M764.851 192.266L760.745 220.347C760.652 220.981 761.091 221.57 761.724 221.663L782.771 224.741C783.405 224.833 783.994 224.394 784.086 223.761L788.193 195.679C788.286 195.045 787.847 194.456 787.213 194.364L766.167 191.286C765.533 191.193 764.944 191.632 764.851 192.266Z" fill="#1E3B4C"/>
<path d="M781.94 192.66C781.944 192.63 781.943 192.599 781.935 192.569C781.927 192.54 781.913 192.512 781.895 192.488C781.876 192.464 781.853 192.444 781.826 192.428C781.8 192.413 781.77 192.404 781.74 192.4L772.96 191.11C772.898 191.101 772.835 191.117 772.784 191.155C772.734 191.192 772.7 191.248 772.69 191.31L772.56 192.22L781.81 193.58L781.94 192.66Z" fill="#F8F7F7"/>
<path d="M777.51 190.64C777.143 190.589 776.77 190.685 776.474 190.908C776.178 191.131 775.982 191.463 775.93 191.83C775.902 192.011 775.91 192.197 775.954 192.375C775.999 192.553 776.078 192.721 776.188 192.868C776.298 193.015 776.436 193.139 776.594 193.232C776.753 193.325 776.928 193.386 777.11 193.41C777.292 193.437 777.477 193.428 777.656 193.383C777.834 193.338 778.002 193.259 778.149 193.149C778.297 193.04 778.422 192.902 778.516 192.744C778.611 192.587 778.673 192.412 778.7 192.23C778.752 191.862 778.655 191.488 778.432 191.19C778.21 190.892 777.878 190.694 777.51 190.64ZM777.18 192.92C777.002 192.898 776.835 192.824 776.7 192.706C776.565 192.589 776.468 192.434 776.421 192.261C776.374 192.088 776.38 191.906 776.438 191.736C776.496 191.567 776.603 191.418 776.745 191.31C776.888 191.202 777.06 191.138 777.238 191.128C777.417 191.118 777.595 191.161 777.749 191.252C777.903 191.344 778.026 191.479 778.103 191.64C778.18 191.802 778.207 191.983 778.18 192.16C778.145 192.392 778.021 192.601 777.835 192.743C777.648 192.885 777.413 192.949 777.18 192.92Z" fill="#F8F7F7"/>
<path d="M781.83 192.43C781.868 192.454 781.899 192.488 781.918 192.529C781.938 192.57 781.945 192.615 781.94 192.66L781.81 193.58L772.61 192.22C772.589 192.372 772.598 192.527 772.637 192.676C772.676 192.825 772.743 192.965 772.836 193.087C772.929 193.21 773.045 193.313 773.178 193.391C773.311 193.468 773.458 193.519 773.61 193.54L780.61 194.54C780.763 194.562 780.918 194.554 781.067 194.516C781.217 194.478 781.357 194.41 781.48 194.317C781.603 194.224 781.706 194.107 781.783 193.974C781.861 193.84 781.91 193.693 781.93 193.54L782.06 192.62C782.049 192.567 782.02 192.519 781.978 192.485C781.936 192.45 781.884 192.431 781.83 192.43Z" fill="#E1F1F2"/>
<path d="M775.39 158.39H770.65C770.701 158.925 770.958 159.419 771.366 159.768C771.775 160.117 772.303 160.294 772.84 160.26C775.38 160.33 775.39 158.39 775.39 158.39Z" fill="white"/>
<path d="M751.47 198.48L759.09 199.26C759.09 199.26 758.97 205.73 759.09 206.48C759.09 206.48 772.09 210.09 777.59 211.07C777.59 211.07 780.07 209.67 781.07 209.22C782.472 208.752 783.915 208.417 785.38 208.22C785.97 208.14 785.77 208.79 785.26 209.02C784.382 209.339 783.612 209.901 783.04 210.64C783.594 210.707 784.155 210.659 784.69 210.5C785.26 210.25 786.04 209.71 786.05 209.43C786.06 209.15 786.2 208.48 786.38 208.52C786.56 208.56 786.49 208.75 786.56 208.98L786.74 209.65C786.83 210.04 786.94 210.65 786.99 210.88C786.954 211.827 786.847 212.769 786.67 213.7C786.58 214.76 786.27 215.24 785.67 215.51C784.606 215.857 783.505 216.078 782.39 216.17C780.372 216.248 778.353 216.046 776.39 215.57L758.74 213.81C758.74 213.81 752.14 212.81 751.74 211.72C751.34 210.63 751.47 198.48 751.47 198.48Z" fill="#F4A492"/>
<path d="M758.09 172.85C758.09 172.85 755.69 173.99 753.57 178.92C751.57 183.61 750.97 206.99 750.97 206.99L758.97 205.66L763.02 194.76C764.451 191.555 765.013 188.029 764.649 184.538C764.286 181.046 763.01 177.712 760.95 174.87C759.81 173.33 758.78 172.41 758.09 172.85Z" fill="#4EBCBF"/>
<path d="M1090.57 332.115L1092.34 331.778L1084.61 290.974L1082.83 291.311L1090.57 332.115Z" fill="#1E3B4C"/>
<path d="M1008.08 332.19H1005.94L1013.92 290.85L1015.7 291.19L1008.08 332.19Z" fill="#1E3B4C"/>
<path d="M1070.61 332.19H1068.47L1076.45 290.85L1078.23 291.19L1070.61 332.19Z" fill="#1E3B4C"/>
<path d="M1027.59 332.19L1029.33 332.21L1021.68 291.04L1019.9 291.37L1027.59 332.19Z" fill="#1E3B4C"/>
<path d="M1058.42 201.22C1067.93 202.22 1080.23 203.31 1092.58 224.28C1106.08 247.19 1098.98 281.41 1088.32 290.92C1077.66 300.43 1042.86 312.22 1013.61 294.63C1013.61 294.63 995.94 283.98 1005.01 266.3C1018.96 239.09 1017.01 233.42 1023.23 222.75C1029.45 212.08 1038.24 199.1 1058.42 201.22Z" fill="#F8F7F7"/>
<path d="M1092.61 224.32C1084.18 210.01 1075.77 204.97 1068.26 202.88C1071.65 206.481 1074.6 210.468 1077.06 214.76C1090.56 237.67 1083.46 271.9 1072.8 281.41C1063.35 289.84 1034.91 300.03 1008.19 289.96C1009.79 291.75 1011.63 293.32 1013.64 294.63C1042.89 312.21 1077.7 300.47 1088.35 290.96C1099 281.45 1106.08 247.22 1092.61 224.32Z" fill="#E1F1F2"/>
<path d="M1027.89 236.09L1025.45 243.42L1032.9 240.49L1027.89 236.09Z" fill="#F39C8E"/>
<path d="M1035.61 214.27C1035.11 214.27 1033.75 214.74 1031.76 218.49C1029.22 223.27 1025.51 237.73 1025.51 237.73L1036.59 241.84L1038.02 238.84L1040.36 215.61C1040.36 215.61 1035.71 214.22 1035.61 214.27Z" fill="#4EBCBF"/>
<path d="M1050.22 212.22C1045.28 212.383 1040.36 213.084 1035.57 214.31C1035.57 214.31 1032.9 237.21 1037.98 254.62C1039.12 258.51 1037.04 270.77 1037.04 270.77L1069.88 270.34C1069.88 270.34 1065.99 240.71 1067.46 235.93C1068.93 231.15 1068.96 214.46 1068.96 214.46L1061.58 213.19C1057.82 212.582 1054.03 212.258 1050.22 212.22Z" fill="#64C3CF"/>
<path d="M1054.99 314.03C1054.99 314.03 1054.27 322.39 1052.93 324.7C1051.59 327.01 1053 330.95 1053.07 331.49C1053.14 332.03 1055.89 332.8 1060.25 332.34C1064.61 331.88 1064.53 330.88 1064.18 329.26C1063.83 327.64 1061.51 325.55 1061.37 324.01C1061.23 322.47 1062.71 316.91 1062.71 316.91L1054.99 314.03Z" fill="#F4A492"/>
<path d="M1040.74 263.83C1040.74 263.83 1018.07 262.58 1013.01 265.63C1007.95 268.68 1013.92 274.96 1013.92 274.96C1013.92 274.96 1032.38 282.96 1063.28 284.74C1070.6 285.16 1071.23 265.74 1069.86 264.11C1068.49 262.48 1040.74 263.83 1040.74 263.83Z" fill="#1B3242"/>
<path d="M1060.79 332.99C1065.28 332.51 1064.72 330.32 1064.36 328.65C1064.13 327.6 1062.85 326.37 1062.08 325.21C1061.2 325.913 1060.18 326.408 1059.08 326.66C1057.08 327.26 1054.28 326.08 1052.51 325.34C1052.05 327.227 1051.85 329.168 1051.91 331.11C1051.98 331.67 1056.3 333.47 1060.79 332.99Z" fill="#F8F7F7"/>
<path d="M1057.37 280C1056.46 286.83 1051.98 320.83 1051.98 320.83L1062.38 322.12C1062.38 322.12 1075.18 277.73 1074.52 270.94C1073.86 264.15 1069.08 263.58 1069.08 263.58C1069.08 263.58 1059.76 261.91 1057.37 280Z" fill="#1E3B4C"/>
<path d="M1069.32 216.97C1066.24 215.82 1064.74 243.4 1064.32 254.75C1058.56 255.063 1052.79 255.003 1047.04 254.57C1045.93 254.49 1043.37 253.57 1042.27 253.41C1041.37 253.258 1040.46 253.214 1039.55 253.28C1039.35 253.28 1033.68 255.63 1033.2 256.14C1032.72 256.65 1030.97 258.35 1031.2 259.03C1031.43 259.71 1034.33 257.12 1034.33 257.12L1035.73 256.35C1033.99 258.04 1030.68 260.26 1031.16 261.07C1031.64 261.88 1034.61 259.6 1036.74 258.07C1034.91 259.72 1032.64 262.66 1033.16 263.07C1033.68 263.48 1036.21 260.07 1038.97 259.07C1039.97 258.71 1040.97 259.72 1041.81 259.84C1042.49 260.006 1043.2 260.043 1043.9 259.95L1046.9 259.11C1047.9 259.2 1047.9 259.8 1048.97 260.02C1050.16 260.27 1052.12 260.54 1053.63 260.91C1062.38 263.03 1065.29 264.02 1067.97 264.02C1076.1 264.08 1076.61 219.68 1069.32 216.97Z" fill="#F4A492"/>
<path d="M1075.14 242.86C1075.72 231.23 1075.63 216.86 1069.14 214.46C1066.56 213.46 1062.02 219.29 1062.83 243.09C1066.27 243.38 1071.4 243.61 1075.14 242.86Z" fill="#4EBCBF"/>
<path d="M1023.61 320.39C1023.61 320.39 1024.52 323.29 1022.89 325.21C1021.26 327.13 1014.51 329.01 1013.62 330.05C1013.12 330.574 1012.83 331.259 1012.8 331.98L1031.8 331.46L1031.59 325.75L1030.72 321.65L1023.61 320.39Z" fill="#F4A492"/>
<path d="M1021.72 326.22C1021.72 326.22 1026.59 328.22 1028.95 327.02C1031.31 325.82 1031.23 325.54 1031.95 325.97C1032.67 326.4 1032.88 332.23 1032.88 332.23L1011.55 332.38C1010.07 332.38 1009.32 331.25 1010.55 330.32C1011.29 329.8 1012.06 329.338 1012.87 328.94C1014.48 327.94 1021.72 326.22 1021.72 326.22Z" fill="#F8F7F7"/>
<path d="M1024.34 269.22C1022.87 266.14 1019.54 262.14 1013.67 264.55C1008.08 266.85 1006.58 272.5 1008.34 278.29C1010.1 284.08 1021.73 318.08 1022.13 322.76L1031.41 322.82C1031.41 322.82 1029.72 295.89 1029.31 289.38C1028.78 282.432 1027.1 275.619 1024.34 269.22Z" fill="#1E3B4C"/>
<path d="M1009.28 237.86H1040.28C1040.68 237.858 1041.08 237.977 1041.41 238.201C1041.74 238.426 1042 238.746 1042.15 239.12L1051.7 262.4H1068.79C1069.02 262.4 1069.24 262.492 1069.41 262.655C1069.57 262.818 1069.66 263.039 1069.66 263.27C1069.66 263.384 1069.64 263.496 1069.59 263.601C1069.55 263.706 1069.49 263.802 1069.4 263.882C1069.32 263.962 1069.23 264.025 1069.12 264.067C1069.02 264.11 1068.9 264.131 1068.79 264.13H1020.14C1019.49 264.132 1018.84 263.944 1018.29 263.589C1017.74 263.234 1017.31 262.727 1017.04 262.13L1007.42 240.71C1007.27 240.401 1007.21 240.061 1007.23 239.721C1007.26 239.38 1007.37 239.052 1007.56 238.766C1007.74 238.481 1008 238.248 1008.3 238.089C1008.6 237.93 1008.94 237.851 1009.28 237.86Z" fill="#372C42"/>
<path d="M1025.97 251.42C1026.07 251.732 1026.27 252.007 1026.52 252.213C1026.78 252.418 1027.09 252.544 1027.42 252.577C1027.75 252.61 1028.08 252.547 1028.37 252.397C1028.66 252.247 1028.91 252.015 1029.07 251.73C1029.24 251.445 1029.32 251.118 1029.3 250.789C1029.28 250.46 1029.17 250.143 1028.98 249.876C1028.79 249.609 1028.52 249.403 1028.21 249.283C1027.91 249.163 1027.57 249.134 1027.25 249.2C1026.79 249.327 1026.39 249.631 1026.15 250.047C1025.91 250.462 1025.85 250.956 1025.97 251.42Z" fill="white"/>
<path d="M1053.99 202.36L1055.51 212.36C1055.51 212.36 1049.97 224.27 1046.66 223.24C1043.88 222.37 1045.59 211.84 1045.59 211.84C1045.59 211.84 1047.11 206.18 1046.65 203.35C1046.19 200.52 1053.99 202.36 1053.99 202.36Z" fill="#F4A492"/>
<path opacity="0.2" d="M1046.61 203.35C1046.16 200.52 1053.95 202.35 1053.95 202.35L1054.08 203.18C1053.88 203.693 1053.59 204.167 1053.23 204.58C1051.43 206.428 1049 207.528 1046.42 207.66C1046.68 206.239 1046.75 204.789 1046.61 203.35Z" fill="#EE755A"/>
<path d="M1055.27 188.22C1055.49 188.14 1057.04 199.61 1054.1 202.76C1051.16 205.91 1045.46 206.95 1043.41 204.47C1041.14 201.72 1041.25 189.39 1045.81 186.14C1050.37 182.89 1055.27 188.22 1055.27 188.22Z" fill="#F4A492"/>
<path d="M1047.55 180.01C1050.1 180.559 1052.43 181.883 1054.2 183.8C1055.8 183.99 1057.97 184.87 1060.2 188.59C1061.34 190.565 1061.72 192.891 1061.26 195.127C1060.8 197.362 1059.53 199.35 1057.7 200.71C1054.49 203.2 1054.53 206.07 1054.53 206.07L1054.03 204.59C1053.65 203.466 1053.51 202.273 1053.62 201.09C1053.68 200.364 1053.86 199.653 1054.14 198.98C1054.92 197.32 1052.48 196.22 1051.8 194.84C1051.27 193.78 1051.25 191.34 1050.42 189.59L1049.42 188.24C1049.42 188.24 1047.14 186.47 1044.91 186.97C1042.68 187.47 1043.03 179.08 1047.55 180.01Z" fill="#1E3B4C"/>
<path d="M1051.97 196.88C1051.97 198.28 1052.58 199.43 1053.39 199.44C1054.2 199.45 1054.87 198.33 1054.9 196.93C1054.93 195.53 1054.28 194.39 1053.47 194.37C1052.66 194.35 1051.99 195.48 1051.97 196.88Z" fill="#F4A492"/>
<path d="M1048.01 200.76L1043.59 200.53C1043.61 201.038 1043.84 201.517 1044.21 201.862C1044.59 202.206 1045.08 202.389 1045.59 202.37C1047.91 202.56 1048.01 200.76 1048.01 200.76Z" fill="white"/>
<path d="M930.989 203.045C931.004 202.994 931.004 202.94 930.989 202.888C930.97 202.792 930.913 202.708 930.832 202.653C930.784 202.625 930.729 202.61 930.674 202.61H930.014C920.868 202.646 914.195 202.653 913.407 202.61C913.272 202.618 913.138 202.596 913.012 202.546C912.885 202.499 912.769 202.424 912.676 202.325C912.597 202.197 912.546 202.054 912.525 201.905C912.509 201.756 912.526 201.605 912.575 201.463L915.399 188.195V188.074C915.579 187.226 915.736 186.371 915.743 186.328C915.85 186.041 915.915 185.742 915.937 185.437C915.959 185.127 915.923 184.815 915.829 184.518C915.736 184.225 915.585 183.954 915.385 183.72C915.092 183.425 914.713 183.229 914.303 183.157H914.238C913.966 183.121 913.027 183.064 909.371 183C909.3 183.349 909.178 183.969 909.02 184.739C909.02 184.739 908.583 186.663 908.21 188.48C907.185 193.254 906.189 198.036 905.178 202.81C904.885 203.931 904.955 205.116 905.379 206.195C905.807 207.238 906.526 208.138 907.452 208.788C908.378 209.439 909.472 209.812 910.604 209.865L911.572 209.95C913.615 209.95 915.722 210 915.722 210C920.61 210 928.136 209.765 928.624 209.8C928.726 209.815 928.83 209.815 928.932 209.8C929.024 209.801 929.116 209.779 929.197 209.736C929.252 209.695 929.298 209.645 929.333 209.587C929.369 209.527 929.393 209.462 929.405 209.394C930.445 205.347 930.989 203.337 930.989 203.045Z" fill="#3E304A"/>
<path d="M912.049 214C912.549 213.996 913.046 214.095 913.507 214.291C913.776 214.388 914.024 214.536 914.236 214.728C914.46 214.933 914.641 215.181 914.768 215.456C914.898 215.733 914.975 216.032 914.994 216.337C915.015 216.644 914.981 216.952 914.892 217.247C914.513 218.892 912.945 220.799 910.962 220.981C910.372 221.041 909.777 220.956 909.227 220.734C908.859 220.591 908.545 220.337 908.33 220.006C908.109 219.658 907.995 219.253 908.002 218.841C907.937 217.029 909.293 214.582 911.29 214.109C911.538 214.042 911.792 214.005 912.049 214Z" fill="#3E304A"/>
<path d="M927.078 214C927.566 214.003 928.049 214.102 928.499 214.291C928.77 214.385 929.018 214.534 929.228 214.728C929.457 214.93 929.641 215.178 929.768 215.456C929.898 215.733 929.975 216.032 929.994 216.337C930.015 216.644 929.981 216.952 929.892 217.247C929.513 218.892 927.945 220.799 925.963 220.981C925.373 221.041 924.777 220.956 924.227 220.734C923.859 220.591 923.546 220.337 923.331 220.006C923.106 219.66 922.992 219.254 923.003 218.841C922.93 217.028 924.293 214.582 926.291 214.109C926.547 214.039 926.812 214.002 927.078 214Z" fill="#3E304A"/>
<path d="M917.335 183C917.294 182.632 917.181 182.276 917.004 181.955C916.809 181.685 916.556 181.467 916.265 181.317C915.96 181.168 915.629 181.085 915.292 181.074C913.911 181.026 912.506 181.026 911.075 181.074C910.44 181.074 909.798 181.074 909.163 181.074C907.902 181.04 906.687 180.571 905.712 179.742C904.796 178.964 904.201 177.852 904.048 176.634C904.007 176.19 904.048 175.746 904 175.302C904 175.087 904.069 175.016 904.29 175.016C906.995 175.059 909.701 174.908 912.4 175.102C913.589 175.151 914.749 175.497 915.782 176.111C916.533 176.522 917.151 177.155 917.556 177.93C917.94 178.67 918.08 179.52 917.956 180.35C917.803 181.246 917.595 182.131 917.335 183Z" fill="#80AAA0"/>
</g>
<defs>
<linearGradient id="paint0_linear_205_303" x1="0" y1="418" x2="1228.68" y2="117.15" gradientUnits="userSpaceOnUse">
<stop offset="0.432292" stop-color="#B2D9CF"/>
<stop offset="1" stop-color="white"/>
</linearGradient>
<clipPath id="clip0_205_303">
<rect width="1200" height="418" fill="white"/>
</clipPath>
</defs>
</svg>
