<svg width="160" height="275" viewBox="0 0 160 275" fill="none" xmlns="http://www.w3.org/2000/svg">
<path d="M159.598 166.644C159.66 166.325 159.66 165.995 159.598 165.676C159.468 165.099 159.131 164.597 158.659 164.278C158.376 164.125 158.063 164.042 157.745 164.036H153.863C100.3 164.252 61.1733 164.305 56.5553 164.036C55.7683 164.089 54.9796 163.966 54.2407 163.674C53.5018 163.382 52.8294 162.929 52.2672 162.343C51.8 161.599 51.5019 160.751 51.3963 159.865C51.2906 158.979 51.3803 158.079 51.6582 157.235L68.2272 78.4976L68.3795 77.7449C69.4451 72.7179 70.3586 67.6372 70.4093 67.3952C70.9685 65.6632 71.2682 63.8491 71.2974 62.0188C71.4297 60.1786 71.2127 58.3291 70.6593 56.5792C70.1058 54.8294 69.2271 53.2146 68.075 51.8305C66.3153 50.0836 64.1091 48.9243 61.7316 48.4971H61.3256C59.7524 48.282 54.2463 47.9326 32.831 47.5562C32.3996 49.653 31.6891 53.309 30.7503 57.8789C30.7503 57.8789 28.213 69.3039 26.0054 80.1105C20.0173 108.444 14.1813 136.805 8.24389 165.139C6.53425 171.788 6.95365 178.85 9.43646 185.22C15.3739 199.091 26.2846 205.596 40.0625 206.994C42.1685 207.209 43.8685 207.37 45.7208 207.505C57.6718 207.505 70.0287 207.801 70.0287 207.801C98.6756 207.801 142.775 206.43 145.642 206.645C146.25 206.708 146.862 206.708 147.469 206.645C148.007 206.636 148.536 206.498 149.017 206.241C149.335 206.009 149.604 205.71 149.809 205.363C150.014 205.017 150.15 204.629 150.209 204.225C156.325 180.273 159.395 168.364 159.598 166.644Z" fill="#3E314B"/>
<path d="M50.0819 234.682C52.8679 234.702 55.6275 235.268 58.2271 236.351C59.8037 236.875 61.2671 237.736 62.5311 238.881C63.795 240.027 64.834 241.434 65.5865 243.02C66.3391 244.606 66.7902 246.339 66.913 248.117C67.0359 249.894 66.8281 251.68 66.302 253.37C64.1252 262.827 55.1609 273.853 43.7858 274.89C40.4039 275.242 36.9924 274.748 33.815 273.449C31.7281 272.66 29.9253 271.179 28.6642 269.217C27.4032 267.255 26.7483 264.912 26.7933 262.524C26.3954 252.08 34.2129 237.969 45.6582 235.213C47.1076 234.844 48.5929 234.665 50.0819 234.682Z" fill="#3E314B"/>
<path d="M135.569 234.682C138.355 234.702 141.115 235.268 143.714 236.351C145.291 236.875 146.754 237.736 148.018 238.881C149.282 240.027 150.321 241.434 151.074 243.02C151.826 244.606 152.277 246.339 152.4 248.117C152.523 249.894 152.315 251.68 151.789 253.37C149.613 262.827 140.648 273.853 129.273 274.89C125.891 275.242 122.48 274.748 119.302 273.449C117.215 272.66 115.413 271.179 114.152 269.217C112.89 267.255 112.236 264.912 112.281 262.524C111.883 252.08 119.7 237.969 131.146 235.213C132.595 234.844 134.08 234.665 135.569 234.682Z" fill="#3E314B"/>
<path d="M81.4606 47.5564C81.2296 45.3928 80.5465 43.2877 79.4471 41.3513C78.2979 39.7988 76.7491 38.5177 74.9318 37.6163C73.1145 36.7149 71.0821 36.2199 69.0067 36.173C60.4306 35.8606 51.8295 35.8606 43.2534 36.173C39.3507 36.173 35.4479 36.173 31.5452 35.9944C23.6758 35.724 16.1801 32.9099 10.4384 28.0702C4.69671 23.2306 1.09563 16.6912 0.298287 9.6564C0.0497045 7.04491 0.2983 4.41111 0 1.7773C0 0.527361 0.397712 0.0809526 1.76492 0.103273C18.2957 0.348797 34.8264 -0.544016 51.3075 0.594324C58.6535 0.932713 65.774 2.9869 71.9648 6.55383C76.664 9.1304 80.4219 12.8843 82.7759 17.3536C85.1299 21.8229 85.9775 26.8127 85.2142 31.709C84.3204 37.0546 83.0669 42.3468 81.4606 47.5564Z" fill="#80AAA0"/>
</svg>
