<svg width="654" height="154" viewBox="0 0 654 154" fill="none" xmlns="http://www.w3.org/2000/svg">
<path d="M355.183 133.001C356.639 133.011 358.082 133.306 359.441 133.87C360.265 134.143 361.03 134.591 361.691 135.188C362.352 135.784 362.895 136.517 363.289 137.344C363.682 138.17 363.918 139.072 363.982 139.998C364.046 140.924 363.938 141.854 363.663 142.734C362.525 147.66 357.838 153.403 351.891 153.943C350.123 154.126 348.34 153.869 346.679 153.192C345.587 152.781 344.645 152.01 343.986 150.988C343.326 149.966 342.984 148.746 343.008 147.502C342.8 142.062 346.887 134.713 352.87 133.277C353.628 133.085 354.404 132.992 355.183 133.001Z" fill="#3E314B"/>
<path d="M398.603 133.001C399.99 133.011 401.364 133.306 402.658 133.87C403.443 134.143 404.172 134.591 404.801 135.188C405.43 135.784 405.948 136.517 406.322 137.344C406.697 138.17 406.922 139.072 406.983 139.998C407.044 140.924 406.941 141.854 406.679 142.734C405.595 147.66 401.132 153.403 395.468 153.943C393.784 154.126 392.085 153.869 390.503 153.192C389.464 152.781 388.567 152.01 387.939 150.988C387.311 149.966 386.985 148.746 387.007 147.502C386.809 142.062 390.701 134.713 396.4 133.277C397.122 133.085 397.861 132.992 398.603 133.001Z" fill="#3E314B"/>
<path d="M97.378 118H44.77V26.608H97.378V42.48H64.098V62.576H95.074V78.448H64.098V102H97.378V118ZM143.531 46.704C152.918 46.704 160.086 48.752 165.035 52.848C170.07 56.8587 172.587 63.0453 172.587 71.408V118H159.275L155.563 108.528H155.051C153.088 111.003 151.04 113.051 148.907 114.672C146.859 116.293 144.47 117.445 141.739 118.128C139.094 118.896 135.808 119.28 131.883 119.28C127.787 119.28 124.075 118.512 120.747 116.976C117.504 115.355 114.944 112.923 113.067 109.68C111.19 106.352 110.251 102.171 110.251 97.136C110.251 89.712 112.854 84.2507 118.059 80.752C123.264 77.168 131.072 75.2053 141.483 74.864L153.643 74.48V71.408C153.643 67.7387 152.662 65.0507 150.699 63.344C148.822 61.6373 146.176 60.784 142.763 60.784C139.35 60.784 136.022 61.296 132.779 62.32C129.536 63.2587 126.294 64.4533 123.051 65.904L116.779 52.976C120.534 51.0133 124.672 49.4773 129.195 48.368C133.803 47.2587 138.582 46.704 143.531 46.704ZM146.219 85.872C140.075 86.0427 135.808 87.152 133.419 89.2C131.03 91.248 129.835 93.936 129.835 97.264C129.835 100.165 130.688 102.256 132.395 103.536C134.102 104.731 136.32 105.328 139.051 105.328C143.147 105.328 146.603 104.133 149.419 101.744C152.235 99.2693 153.643 95.8133 153.643 91.376V85.616L146.219 85.872ZM240.877 97.264C240.877 101.957 239.768 105.968 237.549 109.296C235.33 112.539 232.002 115.013 227.565 116.72C223.128 118.427 217.624 119.28 211.053 119.28C206.189 119.28 202.008 118.939 198.509 118.256C195.01 117.659 191.512 116.635 188.013 115.184V99.44C191.768 101.147 195.821 102.555 200.173 103.664C204.525 104.773 208.365 105.328 211.693 105.328C215.448 105.328 218.093 104.773 219.629 103.664C221.25 102.555 222.061 101.104 222.061 99.312C222.061 98.1173 221.72 97.0507 221.037 96.112C220.44 95.1733 219.074 94.1067 216.941 92.912C214.808 91.7173 211.48 90.1813 206.957 88.304C202.605 86.4267 199.021 84.592 196.205 82.8C193.389 80.9227 191.298 78.704 189.933 76.144C188.568 73.4987 187.885 70.2133 187.885 66.288C187.885 59.8027 190.402 54.9387 195.437 51.696C200.472 48.4533 207.17 46.832 215.533 46.832C219.885 46.832 224.024 47.2587 227.949 48.112C231.874 48.9653 235.928 50.3733 240.109 52.336L234.349 66.032C232.045 65.008 229.826 64.112 227.693 63.344C225.56 62.576 223.469 61.9787 221.421 61.552C219.458 61.1253 217.41 60.912 215.277 60.912C212.461 60.912 210.328 61.296 208.877 62.064C207.512 62.832 206.829 63.984 206.829 65.52C206.829 66.6293 207.17 67.6533 207.853 68.592C208.621 69.4453 210.029 70.384 212.077 71.408C214.21 72.432 217.325 73.7973 221.421 75.504C225.432 77.1253 228.888 78.832 231.789 80.624C234.69 82.3307 236.909 84.5067 238.445 87.152C240.066 89.712 240.877 93.0827 240.877 97.264ZM245.75 48.112H266.614L279.798 87.408C280.225 88.688 280.566 89.968 280.822 91.248C281.163 92.528 281.419 93.8507 281.59 95.216C281.846 96.5813 282.017 98.032 282.102 99.568H282.486C282.742 97.3493 283.083 95.2587 283.51 93.296C284.022 91.248 284.577 89.2853 285.174 87.408L298.102 48.112H318.582L289.014 126.96C287.222 131.739 284.875 135.749 281.974 138.992C279.158 142.235 275.873 144.667 272.118 146.288C268.363 147.909 264.267 148.72 259.83 148.72C257.697 148.72 255.819 148.592 254.198 148.336C252.662 148.165 251.297 147.952 250.102 147.696V132.592C251.041 132.763 252.15 132.933 253.43 133.104C254.795 133.275 256.203 133.36 257.654 133.36C260.299 133.36 262.561 132.805 264.438 131.696C266.401 130.587 268.022 129.051 269.302 127.088C270.582 125.211 271.606 123.163 272.374 120.944L273.526 117.488L245.75 48.112ZM447.431 48.112V118H428.359V48.112H447.431ZM437.959 20.72C440.775 20.72 443.207 21.4027 445.255 22.768C447.303 24.048 448.327 26.48 448.327 30.064C448.327 33.5627 447.303 35.9947 445.255 37.36C443.207 38.7253 440.775 39.408 437.959 39.408C435.058 39.408 432.583 38.7253 430.535 37.36C428.572 35.9947 427.591 33.5627 427.591 30.064C427.591 26.48 428.572 24.048 430.535 22.768C432.583 21.4027 435.058 20.72 437.959 20.72ZM516.127 97.264C516.127 101.957 515.018 105.968 512.799 109.296C510.58 112.539 507.252 115.013 502.815 116.72C498.378 118.427 492.874 119.28 486.303 119.28C481.439 119.28 477.258 118.939 473.759 118.256C470.26 117.659 466.762 116.635 463.263 115.184V99.44C467.018 101.147 471.071 102.555 475.423 103.664C479.775 104.773 483.615 105.328 486.943 105.328C490.698 105.328 493.343 104.773 494.879 103.664C496.5 102.555 497.311 101.104 497.311 99.312C497.311 98.1173 496.97 97.0507 496.287 96.112C495.69 95.1733 494.324 94.1067 492.191 92.912C490.058 91.7173 486.73 90.1813 482.207 88.304C477.855 86.4267 474.271 84.592 471.455 82.8C468.639 80.9227 466.548 78.704 465.183 76.144C463.818 73.4987 463.135 70.2133 463.135 66.288C463.135 59.8027 465.652 54.9387 470.687 51.696C475.722 48.4533 482.42 46.832 490.783 46.832C495.135 46.832 499.274 47.2587 503.199 48.112C507.124 48.9653 511.178 50.3733 515.359 52.336L509.599 66.032C507.295 65.008 505.076 64.112 502.943 63.344C500.81 62.576 498.719 61.9787 496.671 61.552C494.708 61.1253 492.66 60.912 490.527 60.912C487.711 60.912 485.578 61.296 484.127 62.064C482.762 62.832 482.079 63.984 482.079 65.52C482.079 66.6293 482.42 67.6533 483.103 68.592C483.871 69.4453 485.279 70.384 487.327 71.408C489.46 72.432 492.575 73.7973 496.671 75.504C500.682 77.1253 504.138 78.832 507.039 80.624C509.94 82.3307 512.159 84.5067 513.695 87.152C515.316 89.712 516.127 93.0827 516.127 97.264ZM560.424 104.048C562.557 104.048 564.605 103.835 566.568 103.408C568.531 102.981 570.493 102.469 572.456 101.872V116.08C570.408 116.933 567.848 117.659 564.776 118.256C561.789 118.939 558.504 119.28 554.92 119.28C550.739 119.28 546.984 118.597 543.656 117.232C540.413 115.867 537.811 113.52 535.848 110.192C533.971 106.779 533.032 102.085 533.032 96.112V62.448H523.944V54.384L534.44 47.984L539.944 33.264H552.104V48.112H571.688V62.448H552.104V96.112C552.104 98.7573 552.872 100.763 554.408 102.128C555.944 103.408 557.949 104.048 560.424 104.048Z" fill="#3E314B"/>
<path d="M410.976 97.9394C411.008 97.7761 411.008 97.6076 410.976 97.4442C410.91 97.1487 410.737 96.8922 410.496 96.7289C410.351 96.6503 410.191 96.608 410.028 96.6051H408.042C380.633 96.7152 360.613 96.7427 358.25 96.6051C357.847 96.6322 357.444 96.5691 357.065 96.4197C356.687 96.2704 356.343 96.0383 356.056 95.7385C355.817 95.358 355.664 94.9239 355.61 94.4704C355.556 94.0169 355.602 93.5564 355.744 93.1248L364.222 52.8333L364.3 52.4481C364.845 49.8757 365.313 47.2758 365.339 47.152C365.625 46.2657 365.778 45.3374 365.793 44.4008C365.861 43.4591 365.75 42.5127 365.467 41.6172C365.184 40.7218 364.734 39.8955 364.144 39.1872C363.244 38.2933 362.115 37.7001 360.898 37.4815H360.691C359.886 37.3714 357.068 37.1926 346.11 37C345.889 38.073 345.526 39.9438 345.045 42.2823C345.045 42.2823 343.747 48.1287 342.618 53.6586C339.553 68.1575 336.567 82.6702 333.529 97.1691C332.654 100.572 332.869 104.185 334.139 107.445C337.177 114.543 342.76 117.872 349.81 118.587C350.888 118.697 351.758 118.78 352.706 118.849C358.821 118.849 365.144 119 365.144 119C379.803 119 402.368 118.298 403.835 118.408C404.146 118.441 404.459 118.441 404.77 118.408C405.045 118.404 405.316 118.334 405.562 118.202C405.724 118.083 405.862 117.93 405.967 117.753C406.072 117.575 406.142 117.377 406.172 117.17C409.301 104.914 410.872 98.8198 410.976 97.9394Z" fill="#3E314B"/>
<path d="M370.928 37C370.809 35.9081 370.457 34.8458 369.891 33.8685C369.3 33.085 368.503 32.4385 367.567 31.9836C366.632 31.5287 365.586 31.2789 364.518 31.2552C360.104 31.0975 355.677 31.0975 351.262 31.2552C349.254 31.2552 347.245 31.2552 345.236 31.1651C341.186 31.0286 337.328 29.6085 334.373 27.166C331.417 24.7236 329.564 21.4235 329.154 17.8732C329.026 16.5553 329.154 15.2261 329 13.8969C329 13.2661 329.205 13.0409 329.908 13.0521C338.417 13.176 346.925 12.7255 355.408 13.2999C359.189 13.4707 362.854 14.5074 366.04 16.3075C368.459 17.6078 370.393 19.5022 371.605 21.7578C372.816 24.0133 373.253 26.5314 372.86 29.0024C372.4 31.7001 371.754 34.3709 370.928 37Z" fill="#80AAA0"/>
</svg>
