<svg width="126" height="245" viewBox="0 0 126 245" fill="none" xmlns="http://www.w3.org/2000/svg">
<path d="M56.0389 243.825C53.9834 243.463 51.9548 242.956 49.9677 242.308C35.8487 237.431 22.9297 223.056 23.0003 209.366C23.0003 208.427 23.4239 205.573 24.3064 199.83C25.6477 190.872 26.9537 184.407 27.236 182.998C34.6132 145.505 43.473 108.337 51.4149 71.0241C52.1209 67.7732 53.321 66.8701 56.3565 67.0145C65.6045 67.4841 74.9231 67.6647 84.1711 68.1704C85.8837 68.1463 87.5826 68.486 89.1605 69.1678C90.7384 69.8496 92.1611 70.8586 93.3387 72.1315C94.5162 73.4043 95.423 74.9134 96.0018 76.563C96.5807 78.2126 96.8189 79.967 96.7017 81.7156C96.7017 92.5518 93.1719 103.207 90.7717 113.863C85.5476 138.822 79.9353 163.673 74.5348 188.596C73.2994 194.267 74.9584 196.507 80.7472 196.543C93.772 196.543 106.832 196.543 119.857 196.543C125.999 196.543 126.916 197.446 125.293 203.767C122.222 215.94 118.833 228.04 115.762 240.177C115.528 241.569 114.844 242.84 113.821 243.789C112.574 244.677 111.065 245.098 109.55 244.981C101.855 244.258 60.0275 244.439 56.0389 243.825Z" fill="#3E314B"/>
<path d="M98.015 63C95.0241 51.3891 91.0963 48.3432 78.8081 48.3073C65.6912 48.3073 52.5382 48.3073 39.4213 48.3073C33.793 48.1674 28.2561 46.8599 23.1653 44.4689C18.0745 42.0779 13.5419 38.6559 9.85785 34.4222C6.17381 30.1884 3.41958 25.2362 1.7714 19.8826C0.123225 14.529 -0.382568 8.8921 0.286564 3.33294C0.574849 1.07527 1.51177 0.179392 3.89012 0.215228C25.1871 0.681096 46.5563 -1.21805 67.7812 1.50549C86.4116 3.9065 100.213 16.3774 102.88 32.3602C103.481 42.802 101.822 53.2504 98.015 63Z" fill="#80AAA0"/>
</svg>
